<?xml version="1.0" encoding="UTF-8"?>
<svg xmlns="http://www.w3.org/2000/svg" xmlns:xlink="http://www.w3.org/1999/xlink" width="48pt" height="48pt" viewBox="0 0 48 48" version="1.1">
<g id="surface1">
<path style=" stroke:none;fill-rule:nonzero;fill:rgb(95.686275%,50.588235%,12.156863%);fill-opacity:1;" d="M 11.148438 42.335938 C 5.207031 38 1.613281 30.050781 2.429688 23.03125 C 3.363281 15.003906 7.820312 8.675781 14.902344 5.320312 C 18.246094 3.738281 22.535156 2.976562 25.90625 3.371094 C 33.929688 4.304688 40.261719 8.761719 43.617188 15.84375 C 45.199219 19.183594 45.957031 23.472656 45.566406 26.847656 C 44.941406 32.234375 42.878906 36.617188 39.273438 40.214844 C 37.828125 41.660156 35.441406 43.503906 35.429688 43.183594 C 35.429688 43.101562 35.136719 41.054688 34.789062 38.640625 L 34.148438 34.25 L 34.785156 33.507812 C 35.132812 33.097656 35.761719 32.105469 36.183594 31.296875 C 38.257812 27.308594 38.257812 22.570312 36.1875 18.585938 C 32.6875 11.855469 24.386719 9.242188 17.644531 12.75 C 10.914062 16.253906 8.304688 24.550781 11.8125 31.296875 C 12.234375 32.105469 12.863281 33.097656 13.210938 33.503906 L 13.84375 34.242188 L 13.222656 38.695312 C 12.882812 41.144531 12.570312 43.179688 12.53125 43.21875 C 12.488281 43.257812 11.871094 42.863281 11.148438 42.335938 Z M 11.148438 42.335938 "/>
<path style=" stroke:none;fill-rule:evenodd;fill:rgb(3.921569%,20.784314%,40%);fill-opacity:1;" d="M 18.96875 44.140625 C 18.96875 44.085938 19.5625 40.828125 20.289062 36.90625 L 21.609375 29.769531 L 19.746094 27.960938 C 18.277344 26.53125 17.816406 25.867188 17.546875 24.773438 C 16.902344 22.175781 17.300781 20.378906 18.914062 18.589844 C 20.308594 17.039062 21.917969 16.316406 23.964844 16.316406 C 26.0625 16.316406 27.683594 17.066406 29.058594 18.675781 C 31.628906 21.671875 31.125 25.527344 27.785156 28.398438 L 26.285156 29.691406 L 27.324219 35.421875 C 27.894531 38.574219 28.476562 41.847656 28.621094 42.695312 L 28.886719 44.238281 L 23.925781 44.238281 C 21.199219 44.238281 18.96875 44.195312 18.96875 44.140625 Z M 18.96875 44.140625 "/>
</g>
</svg>
